<svg xmlns="http://www.w3.org/2000/svg" version="1.1" xmlns:xlink="http://www.w3.org/1999/xlink" xmlns:svgjs="http://svgjs.dev/svgjs" width="1000" height="1000" viewBox="0 0 1000 1000"><g transform="matrix(1,0,0,1,-0.14221556886212738,-0.14221556886229791)"><svg viewBox="0 0 334 334" data-background-color="#ffffff" preserveAspectRatio="xMidYMid meet" height="1000" width="1000" xmlns="http://www.w3.org/2000/svg" xmlns:xlink="http://www.w3.org/1999/xlink"><g id="tight-bounds" transform="matrix(1,0,0,1,0.04749999999998522,0.04750000000001364)"><svg viewBox="0 0 333.90454557049503 333.90454557049503" height="333.90454557049503" width="333.90454557049503"><g><svg></svg></g><g><svg viewBox="0 0 333.90454557049503 333.90454557049503" height="333.90454557049503" width="333.90454557049503"><g><path d="M0 166.952c0-92.205 74.747-166.952 166.952-166.952 92.205 0 166.952 74.747 166.953 166.952 0 92.205-74.747 166.952-166.953 166.953-92.205 0-166.952-74.747-166.952-166.953zM166.952 316.63c82.665 0 149.677-67.013 149.678-149.678 0-82.665-67.013-149.677-149.678-149.677-82.665 0-149.677 67.013-149.677 149.677 0 82.665 67.013 149.677 149.677 149.678z" data-fill-palette-color="tertiary" fill="#ff4136" stroke="transparent"></path><ellipse rx="160.27418187383762" ry="160.27418187383762" cx="166.95227278524752" cy="166.95227278524752" fill="#ff4136" stroke="transparent" stroke-width="0" fill-opacity="1" data-fill-palette-color="tertiary"></ellipse></g><g transform="matrix(1,0,0,1,81.47070248041209,71.17305217166896)"><svg viewBox="0 0 170.96314060967086 191.55844122715712" height="191.55844122715712" width="170.96314060967086"><g><svg viewBox="0 0 170.96314060967086 191.55844122715712" height="191.55844122715712" width="170.96314060967086"><g><svg viewBox="0 0 170.96314060967086 191.55844122715712" height="191.55844122715712" width="170.96314060967086"><g><svg viewBox="0 0 170.96314060967086 191.55844122715712" height="191.55844122715712" width="170.96314060967086"><g id="textblocktransform"><svg viewBox="0 0 170.96314060967086 191.55844122715712" height="191.55844122715712" width="170.96314060967086" id="textblock"><g><svg viewBox="0 0 170.96314060967086 191.55844122715712" height="191.55844122715712" width="170.96314060967086"><g transform="matrix(1,0,0,1,0,0)"><svg width="170.96314060967086" viewBox="2.25 -43 38.599998474121094 43.25" height="191.55844122715712" data-palette-color="#ffffff"><path d="M15.4 0.25Q12.5 0.25 8.85-0.25L8.85-0.25Q6.85-0.5 6.1-1.3 5.35-2.1 5.45-3.9L5.45-3.9Q5.8-8.85 7.1-16.13 8.4-23.4 10.25-30.15L10.25-30.15Q10.6-31.4 11.65-31.9 12.7-32.4 14.4-32.4L14.4-32.4Q17.45-32.4 17.45-30.7L17.45-30.7Q17.45-30 17.15-29.1L17.15-29.1Q15.85-25.1 14.55-18.38 13.25-11.65 12.7-5.55L12.7-5.55Q14.2-5.4 16.1-5.4L16.1-5.4Q24.85-5.4 29.18-10.7 33.5-16 33.5-24.85L33.5-24.85Q33.5-30.8 30.1-34.05 26.7-37.3 20.5-37.3L20.5-37.3Q16.5-37.3 12.58-36.05 8.65-34.8 5.5-32.75L5.5-32.75Q4.85-32.3 4.1-32.3L4.1-32.3Q3.25-32.3 2.75-33.02 2.25-33.75 2.25-34.8L2.25-34.8Q2.25-36 2.65-36.77 3.05-37.55 4-38.2L4-38.2Q7.45-40.55 12.1-41.78 16.75-43 21.05-43L21.05-43Q27.15-43 31.6-40.88 36.05-38.75 38.45-34.65 40.85-30.55 40.85-24.75L40.85-24.75Q40.85-17.2 37.85-11.58 34.85-5.95 29.1-2.85 23.35 0.25 15.4 0.25L15.4 0.25Z" opacity="1" transform="matrix(1,0,0,1,0,0)" fill="#ffffff" class="undefined-text-0" data-fill-palette-color="quaternary" id="text-0"></path></svg></g></svg></g></svg></g></svg></g><g></g></svg></g></svg></g></svg></g></svg></g><defs></defs></svg><rect width="333.90454557049503" height="333.90454557049503" fill="none" stroke="none" visibility="hidden"></rect></g></svg></g></svg>