<svg xmlns="http://www.w3.org/2000/svg" version="1.1" xmlns:xlink="http://www.w3.org/1999/xlink" xmlns:svgjs="http://svgjs.dev/svgjs" width="1000" height="1125" viewBox="0 0 1000 1125"><g transform="matrix(1,0,0,1,1.7053025658242404e-13,0)"><svg viewBox="0 0 320 360" data-background-color="#ffffff" preserveAspectRatio="xMidYMid meet" height="1125" width="1000" xmlns="http://www.w3.org/2000/svg" xmlns:xlink="http://www.w3.org/1999/xlink"><g id="tight-bounds" transform="matrix(1,0,0,1,0,0)"><svg viewBox="0 0 320 360" height="360" width="320"><g><svg></svg></g><g><svg viewBox="0 0 320 360" height="360" width="320"><g><path xmlns="http://www.w3.org/2000/svg" d="M320 204.145c-0.08-8.44-5.414-15.128-5.494-23.568-0.04-8.44 5.215-18.631 5.136-27.071-2.667-8.002-9.833-12.7-12.501-20.702-2.667-8.002-0.836-19.348-3.463-27.35-5.016-6.808-13.297-9.037-18.274-15.805-5.016-6.808-6.768-18.154-11.744-24.921-6.847-4.897-15.407-4.499-22.294-9.396-6.847-4.897-12.023-15.168-18.91-20.065-8.042-2.548-16.044 0.518-24.086-2.07-8.042-2.548-16.123-10.709-24.165-13.257-8.44 0.08-15.128 5.414-23.568 5.494-8.44 0.04-18.631-5.215-27.071-5.135-8.002 2.667-12.7 9.833-20.702 12.5-8.002 2.667-19.348 0.836-27.35 3.504-6.808 5.016-9.037 13.297-15.805 18.273-6.808 5.016-18.154 6.768-24.922 11.784-4.897 6.847-4.499 15.407-9.395 22.294-4.897 6.847-15.168 12.023-20.065 18.91-2.548 8.042 0.478 16.044-2.07 24.086-2.548 8.042-10.709 16.123-13.257 24.165 0.04 8.44 5.414 15.128 5.494 23.568 0.04 8.44-5.215 18.631-5.136 27.071 2.667 8.002 9.833 12.7 12.501 20.702 2.667 8.002 0.836 19.348 3.503 27.35 5.016 6.808 13.297 9.037 18.273 15.845 5.016 6.808 6.768 18.154 11.745 24.921 6.847 4.897 15.407 4.499 22.294 9.396 6.847 4.897 12.023 15.168 18.91 20.065 8.042 2.548 16.044-0.478 24.086 2.07 8.042 2.548 16.123 10.709 24.165 13.257 8.44-0.08 15.128-5.414 23.568-5.494 8.44-0.04 18.631 5.215 27.071 5.135 8.002-2.667 12.7-9.833 20.702-12.5 8.002-2.667 19.348-0.836 27.35-3.504 6.808-5.016 9.037-13.297 15.845-18.273 6.808-5.016 18.154-6.768 24.921-11.744 4.897-6.847 4.499-15.407 9.396-22.294 4.897-6.847 15.168-12.023 20.064-18.91 2.548-8.042-0.478-16.044 2.071-24.086 2.468-8.121 10.63-16.203 13.177-24.245zM305.987 227.395c-3.623 7.126-12.501 13.456-16.164 20.582-3.623 7.126-2.03 15.088-5.653 22.215-5.653 5.653-16.044 8.918-21.737 14.57-5.653 5.653-6.569 13.735-12.261 19.388-7.126 3.623-18.034 3.503-25.161 7.166-7.126 3.623-10.51 11.028-17.636 14.651-7.922 1.234-18.233-2.229-26.156-0.996-7.922 1.234-13.416 7.246-21.299 8.48-7.922-1.234-16.641-7.763-24.563-8.997-7.922-1.274-14.969 2.747-22.891 1.473-7.126-3.623-13.456-12.54-20.582-16.163-7.126-3.623-15.088-2.03-22.255-5.654-5.653-5.653-8.918-16.044-14.571-21.736-5.653-5.653-13.735-6.609-19.387-12.262-3.623-7.126-3.503-18.034-7.166-25.161-3.623-7.126-11.028-10.51-14.651-17.636-1.234-7.922 2.229-18.233 0.995-26.156-1.274-7.922-7.246-13.416-8.479-21.298 1.274-7.922 7.763-16.641 8.997-24.564 1.234-7.922-2.747-14.969-1.473-22.891 3.623-7.126 12.54-13.456 16.163-20.582 3.623-7.126 2.03-15.088 5.653-22.254 5.653-5.653 16.044-8.918 21.737-14.571 5.653-5.653 6.609-13.735 12.262-19.388 7.126-3.623 18.034-3.503 25.16-7.166 7.126-3.623 10.51-11.028 17.637-14.651 7.922-1.234 18.233 2.229 26.155 0.996 7.922-1.234 13.416-7.246 21.299-8.48 7.922 1.234 16.641 7.763 24.564 8.997 7.922 1.274 14.969-2.747 22.891-1.473 7.126 3.623 13.456 12.54 20.582 16.163 7.126 3.623 15.088 2.03 22.254 5.654 5.653 5.653 8.918 16.044 14.571 21.736 5.653 5.653 13.735 6.609 19.388 12.262 3.623 7.126 3.503 18.034 7.166 25.161 3.623 7.126 11.028 10.51 14.65 17.636 1.274 7.922-2.229 18.233-0.995 26.156 1.234 7.922 7.246 13.416 8.48 21.298-1.234 7.922-7.763 16.641-8.997 24.564-1.234 7.922 2.747 15.009 1.473 22.931z" fill="#ff0000" fill-rule="nonzero" stroke="none" stroke-width="1" stroke-linecap="butt" stroke-linejoin="miter" stroke-miterlimit="10" stroke-dasharray="" stroke-dashoffset="0" font-family="none" font-weight="none" font-size="none" text-anchor="none" style="mix-blend-mode: normal" data-fill-palette-color="tertiary"></path></g><g transform="matrix(1,0,0,1,117.6451879452078,80.99999999999999)"><svg viewBox="0 0 84.70962410958442 198.00000000000003" height="198.00000000000003" width="84.70962410958442"><g><svg viewBox="0 0 84.70962410958442 198.00000000000003" height="198.00000000000003" width="84.70962410958442"><g><svg viewBox="0 0 150.79565217391306 352.46926714973546" height="198.00000000000003" width="84.70962410958442"><g transform="matrix(1,0,0,1,0,154.46926714973543)"><svg viewBox="0 0 150.79565217391306 198.00000000000003" height="198.00000000000003" width="150.79565217391306"><g id="textblocktransform"><svg viewBox="0 0 150.79565217391306 198.00000000000003" height="198.00000000000003" width="150.79565217391306" id="textblock"><g><svg viewBox="0 0 150.79565217391306 198.00000000000003" height="198.00000000000003" width="150.79565217391306"><g transform="matrix(1,0,0,1,0,0)"><svg width="150.79565217391306" viewBox="4.659999847412109 -33.08000183105469 25.65999984741211 33.69000244140625" height="198.00000000000003" data-palette-color="#ff0000"><path d="M12.11 0.61L12.11 0.61Q8.15 0.61 4.66-0.02L4.66-0.02 4.66-32.69Q7.89-33.08 12.15-33.08 16.41-33.08 19.86-31.92 23.32-30.76 25.63-28.61L25.63-28.61Q30.32-24.32 30.32-16.58L30.32-16.58Q30.32-7.91 25.1-3.42L25.1-3.42Q20.41 0.61 12.11 0.61ZM11.01-27.1L11.01-5.35Q12.6-5.05 14.18-5.05 15.77-5.05 17.6-5.68 19.43-6.3 20.78-7.62L20.78-7.62Q23.66-10.4 23.66-15.72L23.66-15.72Q23.66-24.46 17.29-26.46L17.29-26.46Q15.19-27.12 12.43-27.12L12.43-27.12 11.77-27.12Q11.4-27.12 11.01-27.1L11.01-27.1Z" opacity="1" transform="matrix(1,0,0,1,0,0)" fill="#ff0000" class="undefined-text-0" data-fill-palette-color="primary" id="text-0"></path></svg></g></svg></g></svg></g></svg></g><g transform="matrix(1,0,0,1,28.80196956521739,0)"><svg viewBox="0 0 93.19171304347827 107.72621914973541" height="107.72621914973541" width="93.19171304347827"><g><svg xmlns="http://www.w3.org/2000/svg" xmlns:xlink="http://www.w3.org/1999/xlink" version="1.1" x="0" y="0" viewBox="17.299999237060547 12.199999809265137 65.39999389648438 75.60000610351562" style="enable-background:new 0 0 100 100;" xml:space="preserve" height="107.72621914973541" width="93.19171304347827" class="icon-icon-0" data-fill-palette-color="accent" id="icon-0"><path d="M50 12.2L17.3 31.1v37.8L50 87.8l32.7-18.9V31.1L50 12.2zM32.1 37.4L50 16l17 21.4H32.1zM67.3 39.4L50 70.4l-18.2-31H67.3zM48.1 71l-27.7-4.5 9.8-25.9L48.1 71zM68.9 40.7l10.7 25.9-27.7 4.5L68.9 40.7zM69.2 37.1L52.6 16l27 15.6L69.2 37.1zM29.8 37.1l-9.4-5.5 26.8-15.5L29.8 37.1zM28.8 38.8l-9.5 25V33.3L28.8 38.8zM49 73.2v11.7L20.9 68.7 49 73.2zM51 73.2l28.1-4.5L51 84.9V73.2zM70.3 38.8l10.5-5.6v30.9L70.3 38.8z" fill="#ed2647" data-fill-palette-color="accent"></path></svg></g></svg></g><g></g></svg></g></svg></g></svg></g></svg></g><defs></defs></svg><rect width="320" height="360" fill="none" stroke="none" visibility="hidden"></rect></g></svg></g></svg>